<svg xmlns="http://www.w3.org/2000/svg" version="1.1" xmlns:xlink="http://www.w3.org/1999/xlink" xmlns:svgjs="http://svgjs.dev/svgjs" viewBox="0 0 800 800" opacity="0.81"><defs><linearGradient x1="50%" y1="0%" x2="50%" y2="100%" id="ssscribble-grad"><stop stop-color="hsl(206, 75%, 49%)" stop-opacity="1" offset="0%"></stop><stop stop-color="hsl(331, 90%, 56%)" stop-opacity="1" offset="100%"></stop></linearGradient></defs><g fill="none" stroke-width="1.5" stroke="hsl(32, 0%, 29%)" stroke-linecap="round"><path d="M1100.5 532.87C931.86 565.73 695.26 612.3 660.27 668.13 852.91 719.84 1045.97 771.78 1039.68 812.15 842.75 833.08 634.71 825.55 573.6 781.57 681.34 717.77 847.46 635.3 945.91 561.01 926.51 534.06 800.89 569.77 641.66 678.15 491.3 829.6 398.67 979.34 359.51 1063.43 361.49 1043.37 380.31 923.85 391.99 763.41 408.97 659 403.38 670.42 370.52 802.15 337.66 978.84 279.08 1088.28 200.13 1071.93 126.48 943.63 47.88 772.44 -11.03 642.12 -28.83 602.81 9.68 658.57 109.4 766.75 217.97 885.27 296.42 957.18 272.75 963.51 131.24 908.66 -73.84 809.42 -215.8 695.37 -188.9 576.31 -10.33 476.83 162.5 401.79 144.7 342.48 -67.06 301.23 -272.37 269.17 -250.07 242.53 -20.12 214.87 148.5 182.02 41.82 149.15 -200.86 112.65 -291.23 77.31 -133.15 47.39 102.3 28.86 184.51 31.22 55.21 49.3 -139.59 94.67 -221.17 163.08 -129.81 226.48 66.23 278.55 237.87 290.35 311.31 240.97 271.4 130.1 176.54 -22.61 66.24 -165.02 1.85 -250.27 -8.08 -235.07 22.56 -128.85 82.15 23.62 145.58 139.26 217.11 142.95 273.04 26.88 305.91 -149.78 338.77 -281.54 347.01 -286.34 337.46 -169.28 336 3.84 336.17 142.08 362.46 186.25 429.33 126.26 547.83 6 708.77 -111.23 854.29 -185.41 941.4 -182.17 911.06 -112.16 782.5 5.18 625.41 134.82 568.22 249.27 683.99 343.91 908.26 405.56 1061.68 441.59 895.24 462.09 869.09 491.21 1100.51 532.86Q1100.5 532.87 1100.5 532.87" opacity="0.08"></path><path d="M1066.5 625.46C916.09 655.98 687.28 687.11 610.02 714.87 748.23 737.99 953.32 749.18 1034.25 741.04 927.38 720.41 719.54 676.08 562.15 612.26 540.61 553.6 644.31 503.65 782.87 486.67 887.05 522.36 896.39 613.42 824.78 749.38 697.5 890.83 562.96 999.48 452.13 1030.39 360.17 971.67 301.3 841.66 263.08 697.87 234.82 617.95 209.3 642.27 178.78 768.15 148.27 933.09 114.21 1045.12 84.93 1051.76 65.6 955.02 68.96 800.66 108.04 657.02 165.99 573.72 250.28 574.22 330.54 640.76 355.12 747.54 301.97 845.45 157.79 904.57 -20.75 918.9 -160.63 882.56 -170.86 812.6 -45.24 718.11 135.22 620.16 219.72 532.04 116.43 446.89 -106.02 378.37 -256 325.39 -190.52 275.8 32.09 236.56 182.5 206.05 -21.39 165.36 -53.88 149.15 210.43 187.93 183.66 223.17 21.33 270.86 -132.99 318.33 -176.66 341.27 -78.11 333.82 91.52 279.5 259.18 180.4 352.15 46.32 364.12 -92.23 309.89 -190.55 233.2 -218.43 169.73 -157.52 105.23 32.23 129.72 108.23 173.55 -115.78 204.07 -241.7 237.01 -259.87 279.24 -168.19 330.71 -12.63 406.61 134.75 513.79 215.85 630.13 207.33 757.07 126.06 858.35 16.39 893.43 -87.8 844.29 -142.69 716.64 -138.4 586.98 -81.44 524.58 12.3 599.99 117.98 786.08 228.83 975.79 323.41 1024.97 396.93 894.03 457.96 689.43 502.28 607.35 536.71 743.3 566.49 975.59 594.94 1066.51 625.45Q1066.5 625.46 1066.5 625.46" opacity="0.98"></path><path d="M1032.5 571.69C791.62 608.24 745.59 614.8 979.05 575.98 973.9 543.46 827.32 500.76 641.31 458.81 510.73 438.29 495.16 443.18 571.1 487.79 696.25 572.4 798.14 691.67 842.49 824.21 829.37 933.23 765.31 991.74 679.83 974.31 578.08 888.63 487.78 758.78 418.01 636.11 350.66 579.73 303.23 614.77 275.06 734.15 243.11 943.19 289.73 895.17 362.2 687.41 398.88 575.1 416.55 525.99 386.26 541.33 298.5 610.61 156.17 700.57 -5.88 781.48 -118.75 843.87 -136.57 867.25 -35.32 854.61 121.35 813.3 242.68 752.06 227.18 684.53 66.89 609.07 -136.77 540.39 -226.34 483.84 -126.84 427.26 83.79 384.16 216.5 355.98 37.55 321.86 -91.13 331.52 188.62 366.88 259.96 385.6 180.87 400.47 28.98 398.38 -104.22 367.62 -133.38 303.8 -57.62 204.51 89 86.68 241.68 -36.67 355.01 -135.28 419.24 -179.97 430.58 -156.13 413.13 -64.48 354.94 114.61 305.35 130.08 336.01 -81.78 364.17 -201.2 414.17 -230.56 484.55 -163.32 554.85 -29.79 641.36 116.09 730.73 222.42 797 260.51 832.07 227.27 811.27 147.58 741.37 44.37 629.12 -41.51 519.4 -89.2 480.53 -96.89 543.06 -61.35 705.58 2.57 886.8 87.93 991.19 177.01 940.53 258.35 772.54 338.61 606.33 404.59 586.72 456.14 744.79 505.27 956.49 543.52 1032.51 571.68Q1032.5 571.69 1032.5 571.69" opacity="0.08"></path><path d="M998.5 406.46C882.85 432.28 682.95 443.01 549.61 439.91 570.1 437.34 717.07 422.92 879.31 401.36 960.03 387.46 907.94 377.5 763.51 382.29 593.22 411.25 475.58 468.18 440.67 555.96 485.03 661.96 572.57 778.01 660.6 880.92 736.99 944.39 772.51 953 771.19 897.73 744.35 797.98 700 677.62 653.58 578.9 601.54 544.38 559.82 587.9 534 700.15 503.83 895.9 499.25 906.85 480.03 726.96 436.61 602.6 358.57 517.11 242.39 483.48 114.56 502.19 -10.04 557.55 -88.23 627.33 -87.17 703.34 -0.13 761.21 143.25 793.69 260.81 806.51 289.74 794.93 190.09 767.11 8.92 727.54 -152.73 683.16 -183.18 641.26 -59.8 596.9 134.85 560.31 250.5 534.49 188.39 508.66 5.24 494.84 -153.99 490.5 -180.11 483.71 -54.98 481.12 130.73 475.95 270.85 459.03 291.47 428.09 205.47 375.49 63.5 303.23 -50.14 208.3 -89.59 98.44 -49.31 -5.17 52.69 -91.16 175.43 -136.76 301.67 -130.03 398.85 -67.71 462.83 37.71 503.23 148.26 523.05 234.4 536.18 260.14 542.63 208.31 555.94 92.79 581.76 -47.78 607.57 -160.06 644.67 -198.38 686.92 -153.91 722.49 -45.25 749.65 89.81 754 208.49 734.77 282.69 680.13 297.25 593.69 260.67 510.73 184.65 445.78 99.21 439.31 27.05 512.58 -26.89 656.83 -46.75 825.69 -35.92 938.6 -0.91 941.17 51.55 819.99 110.2 653.2 176.5 542.74 237.89 578.78 289.16 747.95 340.94 936.34 380.63 998.51 406.45Q998.5 406.46 998.5 406.46" opacity="0.28"></path><path d="M964.5 237.03C865.15 260.5 684.89 274.53 539.08 281.36 508.31 290.47 600.58 297.11 750.02 306.92 880.92 326.62 921.14 358.63 862.03 408.87 730.33 475.09 581.93 560.76 465.34 660.39 400.27 757.24 395.44 843.83 430.76 901.56 495.96 917.24 560.46 884.39 608.37 805.33 649.16 704.07 666.67 600.53 665.32 526.92 658.84 511.94 641.94 561.65 618.47 666.15 595 794.21 566.06 900.48 528.28 954.07 485.36 944.81 425.15 875.12 343.68 768.33 255.1 648.28 151.94 544.05 50.57 473.48 -20.92 442.84 -49.79 450.89 -15.48 485.57 70.34 541.78 190.9 599.98 298.16 648.87 332.83 692.58 271.56 718.13 123.46 726.53 -43.18 726.42 -148.8 714.32 -127.09 695.09 9.64 673.11 185.15 649.16 284.5 625.69 235.1 602.21 76.57 580.33 -84.11 558.05 -155.25 533.01 -94.02 502.42 56.31 461.86 221.99 412.79 323.45 348.58 330.7 268.71 252.25 183.64 136.37 91.74 34.45 4.76 -30.64 -60.68 -34.79 -96.58 10.22 -90.38 92.67 -44.27 188.35 38.89 277.74 141.74 366.19 231.33 435.68 287.67 486.54 287.89 533.34 225.26 567.37 114.26 590.84 -13.78 614.32 -118.31 626.13 -163.29 623.6 -139.28 617.01 -56.62 590.23 60.28 542.47 178.74 465.24 301.97 400.49 275.02 515.25 179.56 647.93 110.69 791.65 58.72 894.56 28.67 911.78 14.6 831.39 21.26 682.92 42.23 549.77 73.09 501.87 109.16 582.02 144.31 751.75 181.75 915.06 213.55 964.51 237.02Q964.5 237.03 964.5 237.03" opacity="0.72"></path><path d="M930.5 173.39C846.57 194.52 688.26 216.15 540.11 239.69 469.41 265.42 503.24 297.09 612.68 337.81 750.69 384.99 851.32 444.95 880.66 517.81 835.43 594.48 733.48 677.55 611.35 758.13 490.41 822.7 400.91 865.7 349.26 875.83 331.41 851.39 340.07 791.14 359.89 703.42 404.66 570.58 441.25 509.18 418.49 632.15 397.36 747.51 359.4 847.82 306.54 909.04 254.35 921.83 190.2 882.43 121.67 804.02 65.24 701.68 21.8 597.02 7.09 507.5 26.18 440.74 85.35 404.43 178.6 395.54 273.05 411.58 349.95 442.17 373.19 477.33 321.85 519.2 202.27 554.09 48.77 577.98 -76.14 599.79 -121.99 609.35 -59.45 607.43 80.54 604.06 234.57 591.5 318.5 570.37 280.58 549.25 147.5 520.57 -5.24 484.1 -106.83 446.19 -105.87 398.2 -11.44 339.79 136.38 279.29 275.85 209.61 361.62 135.19 376.62 67.46 327.67 6.54 245.22 -37.19 148.02 -55.99 72.22 -44.75 30.92 0 19.77 67.52 41.04 153.23 81.28 240.09 136.68 303.03 193.4 330.41 242.13 309.49 292.89 240.13 330.31 135.56 351.43 20.21 372.57 -75.98 376.41 -125.31 365.49 -118.89 356.6 -61.75 338.31 32.07 319.51 139.49 315.88 242.7 329.38 321.9 373.07 368.34 446.92 380.22 553.04 362.27 677.93 325.39 788.08 272.49 862.1 219.75 869.12 175.64 805.36 135.34 684.85 110.16 552.5 99.59 473.53 95.47 484.56 102.24 594.27 116.35 755.16 132.65 892.54 152.26 930.51 173.38Q930.5 173.39 930.5 173.39" opacity="0.80"></path><path d="M896.5 256.86C827 275.63 692.05 302.3 550.64 336.65 454.02 371.92 435.35 416.3 490.55 469.5 598.3 523.71 713.3 585.43 798.68 650.96 838.83 710.89 821.83 766.07 760.82 808.51 667.78 831.62 566.4 831.32 474.28 803.2 391.55 753.19 331.17 681.89 290.78 599.32 255.12 495.82 219.34 483.26 194.43 598.15 175.65 700.68 151.25 793.33 124.72 858.19 101.87 887.84 84.11 875.45 79.03 827.09 86.87 751.3 116.33 661.71 170.12 572.38 233.3 489.6 307.72 424.3 376.15 379.29 412.55 353.33 407.29 344.97 347.58 348.42 242.65 363.39 110.81 381.26 -10.69 396.71 -79.65 415.22 -71.67 426.64 17.69 428.73 151.85 431.03 283 423.23 352.5 404.45 324.75 385.68 217.01 356.82 79.89 319.11 -36.49 281.61 -83.59 236.03 -50.78 184.98 47.72 136.99 176.86 88.19 297.04 44.27 403.77 2.57 332.43 36.51 235.93 121.26 173.58 191.04 131.15 263.79 109.68 325.82 99.29 360.42 104.37 362.14 118.53 325.26 136.48 253.17 156.46 156.73 175.24 54.21 194.02 -33.1 210.7 -84.51 228.16 -92.4 249.41 -58.79 278.49 9.68 321.41 98.04 375.41 194.38 448.76 282.52 540.05 352.1 632.79 399.77 725.17 422.34 797.94 423.84 831.63 406.01 816.77 377.79 748.18 346.8 647.55 310.21 535.25 279.41 450.48 257.74 431.41 237.09 489.18 226.86 612.78 227 757.15 228.06 868.71 238.07 896.51 256.85Q896.5 256.86 896.5 256.86" opacity="0.10"></path><path d="M862.5 433.24C693.86 466.1 457.93 533.28 403.49 621.4 553.64 698.49 732.1 766.76 793.53 786.67 728.17 747.7 588.96 639.75 463.98 500.49 344.21 416.26 270.88 432.42 238.02 564.15 205.15 740.84 215.88 845.56 278.7 831.94 346.73 719.81 434.65 565.67 456.95 434.22 352.44 338.9 139.14 294.12 -35.09 276.11 -4.74 276.65 217.86 268.5 386.5 235.64 279.81 202.79 45.7 148.33 -46.26 90.84 76.94 51.89 294.46 45.38 438.85 97.61 466.64 185.99 407.15 305.28 345.86 393.34 277.54 382.9 258.8 264.88 291.66 88.21 324.5 -43.55 405.85 -46.43 531.1 61.87 649.35 225.23 760.14 368.03 775.46 450.08 582.82 464.75 632.05 402.66 862.51 433.23Q862.5 433.24 862.5 433.24" opacity="0.76"></path><path d="M828.5 588.04C695.8 616.21 481.2 658.87 363.76 701.71 406.15 730.54 546.51 733.73 670.13 691.86 740.99 620.56 725.83 515.27 669.46 413.93 587.55 372.46 520.66 410.77 492.5 530.15 464.33 683.05 477.55 790.54 510.65 814.83 518.2 761.07 489.41 652.1 381.63 533.94 221.09 417.83 50.86 331.78 -12.16 275.9 84.62 232.85 287.8 201.69 420.5 173.52 344.54 145.35 146.65 122.85 8.04 117.09 14.85 124.16 155.55 166.24 320.85 245.43 458.86 326.67 522.32 405.77 538.65 438.89 525.68 393.97 520.96 275.08 549.12 122.21 577.27 2.79 635.66 -24.12 697.45 37.98 729.94 159.96 710.47 295.13 609.39 403.35 481.01 482.14 370.15 522.91 383.95 542.9 543.18 548.86 752.49 559.87 828.51 588.03Q828.5 588.04 828.5 588.04" opacity="0.18"></path><path d="M794.5 620.77C695.16 644.24 516.91 659 373.2 658.42 322.09 649.4 369.58 613 459.48 547.73 567.24 478.62 636.72 401.73 660.82 345.36 666.68 339.92 650.01 391.65 626.54 496.15 603.07 624.21 575.02 725.94 528.48 774.28 463.7 770.14 357.59 715.65 219.06 637.1 98.41 542.29 26.01 455.32 59.92 388.84 186.42 325.74 355.16 281.89 454.5 258.42 405.1 234.95 253.44 234.08 107.07 256.5 29.5 282.3 60.37 332.63 157.72 396.68 290.99 444.47 407.32 474.06 485.77 461 549.99 395.48 588.94 284.25 612.41 156.21 635.89 51.67 641.67 9.43 618.14 32.06 580.37 105.64 500.68 207.43 398.16 307.3 331.56 403.34 325.57 476.38 420.32 526.07 583.88 567.33 745.06 597.29 794.51 620.76Q794.5 620.77 794.5 620.77" opacity="0.47"></path><path d="M760.5 510.18C691 528.95 557.73 527.97 422.83 508.24 321.58 486.95 281.47 446.66 290.92 394.42 339.39 351.28 394.75 313.88 432.89 298.61 472.24 318.58 484.4 374.86 465.62 462.15 446.84 564.69 398.9 653.36 327.01 711.25 256.33 740.25 171.66 733.14 98.59 701.2 64.52 650.93 84.72 594.42 172.21 544.76 293.34 492.52 419 454 488.5 435.23 460.75 416.45 358.22 419.19 235.96 438.89 100.37 469.6 161.79 509.79 261.71 460.63 331.72 388.97 380.35 292.69 399.13 190.15 417.91 102.86 405.06 54.19 367.59 47.98 335.25 77.01 294.48 134.33 271.53 202.08 291.27 278.93 363.26 348.53 486.55 402.36 622.57 454.63 732.71 491.39 760.51 510.17Q760.5 510.18 760.5 510.18" opacity="0.19"></path><path d="M726.5 328.06C593.8 356.22 382.87 325.31 264.59 275.08 233.28 264.12 247.42 308.77 219.26 428.15 191.09 581.06 125.94 678.81 120.34 696.8 201.71 670.03 389.8 617.33 522.5 589.16 446.52 560.99 264.88 562.69 156.34 552.55 119.67 497.64 158.8 377.06 186.97 224.15 215.13 104.77 227 82.96 300.59 130.83 446.05 217.97 650.52 299.89 726.5 328.06Q726.5 328.06 726.5 328.06" opacity="0.34"></path><path d="M692.5 192.64C486.4 230.19 245.76 252.78 208.21 394.15 170.65 593.3 350.4 657.84 556.5 620.29 415.75 582.73 214.6 457.3 252.16 258.15 289.71 116.78 551.75 155.08 692.5 192.64Q692.5 192.64 692.5 192.64" opacity="0.44"></path></g></svg>